<svg xmlns="http://www.w3.org/2000/svg" xmlns:xlink="http://www.w3.org/1999/xlink" width="500" zoomAndPan="magnify" viewBox="0 0 375 374.999991" height="500" preserveAspectRatio="xMidYMid meet" version="1.0"><defs><g/><clipPath id="28b6db821d"><path d="M 23.054688 13.832031 L 360.554688 13.832031 L 360.554688 351.332031 L 23.054688 351.332031 Z M 23.054688 13.832031 " clip-rule="nonzero"/></clipPath><clipPath id="d4ba585e32"><rect x="0" width="290" y="0" height="199"/></clipPath></defs><g clip-path="url(#28b6db821d)"><path fill="#000000" d="M 191.804688 351.332031 C 98.574219 351.332031 23.054688 275.289062 23.054688 182.582031 C 23.054688 89.875 98.574219 13.832031 191.804688 13.832031 C 285.03125 13.832031 360.554688 89.351562 360.554688 182.582031 C 360.554688 275.8125 284.511719 351.332031 191.804688 351.332031 Z M 191.804688 24.25 C 104.304688 24.25 33.46875 95.082031 33.46875 182.582031 C 33.46875 270.082031 104.304688 340.914062 191.804688 340.914062 C 279.304688 340.914062 350.136719 270.082031 350.136719 182.582031 C 350.136719 95.082031 278.78125 24.25 191.804688 24.25 Z M 191.804688 24.25 " fill-opacity="1" fill-rule="nonzero"/></g><g transform="matrix(1, 0, 0, 1, 49, 76)"><g clip-path="url(#d4ba585e32)"><g fill="#000000" fill-opacity="1"><g transform="translate(0.91104, 155.856858)"><g><path d="M 43.859375 14.78125 C 37.210938 14.78125 32.082031 13.101562 28.46875 9.75 C 24.863281 6.40625 23.0625 1.382812 23.0625 -5.3125 L 23.0625 -30.421875 C 23.0625 -34.753906 22.148438 -37.804688 20.328125 -39.578125 C 18.515625 -41.347656 15.488281 -42.234375 11.25 -42.234375 L 5.59375 -42.234375 L 5.59375 -52.28125 L 11.25 -52.28125 C 15.488281 -52.28125 18.515625 -53.175781 20.328125 -54.96875 C 22.148438 -56.757812 23.0625 -59.820312 23.0625 -64.15625 L 23.0625 -89.28125 C 23.0625 -95.96875 24.863281 -100.984375 28.46875 -104.328125 C 32.082031 -107.679688 37.210938 -109.359375 43.859375 -109.359375 L 51.140625 -109.359375 L 51.140625 -100.171875 L 45.34375 -100.171875 C 41.476562 -100.171875 38.613281 -99.285156 36.75 -97.515625 C 34.882812 -95.742188 33.953125 -93 33.953125 -89.28125 L 33.953125 -65.015625 C 33.953125 -60.242188 33.046875 -56.550781 31.234375 -53.9375 C 29.421875 -51.320312 26.742188 -49.351562 23.203125 -48.03125 L 23.203125 -46.546875 C 26.742188 -45.222656 29.421875 -43.253906 31.234375 -40.640625 C 33.046875 -38.023438 33.953125 -34.332031 33.953125 -29.5625 L 33.953125 -5.3125 C 33.953125 -1.582031 34.882812 1.164062 36.75 2.9375 C 38.613281 4.707031 41.476562 5.59375 45.34375 5.59375 L 51.140625 5.59375 L 51.140625 14.78125 Z M 43.859375 14.78125 "/></g></g></g><g fill="#f18617" fill-opacity="1"><g transform="translate(57.165176, 155.856858)"><g><path d="M 40.46875 1.484375 C 34.195312 1.484375 28.664062 -0.0078125 23.875 -3 C 19.082031 -6 15.332031 -10.515625 12.625 -16.546875 C 9.914062 -22.585938 8.5625 -30.066406 8.5625 -38.984375 C 8.5625 -47.890625 9.972656 -55.375 12.796875 -61.4375 C 15.628906 -67.5 19.53125 -72.023438 24.5 -75.015625 C 29.476562 -78.015625 35.25 -79.515625 41.8125 -79.515625 C 47 -79.515625 51.664062 -78.535156 55.8125 -76.578125 C 59.957031 -74.617188 63.519531 -71.398438 66.5 -66.921875 L 67.984375 -67.203125 L 67.984375 -109.359375 L 79.515625 -109.359375 L 79.515625 0 L 67.984375 0 L 67.984375 -11.390625 L 66.5 -11.671875 C 63.945312 -7.804688 60.488281 -4.644531 56.125 -2.1875 C 51.769531 0.257812 46.550781 1.484375 40.46875 1.484375 Z M 44.078125 -8.84375 C 51.335938 -8.84375 57.132812 -11.328125 61.46875 -16.296875 C 65.8125 -21.273438 67.984375 -28.835938 67.984375 -38.984375 C 67.984375 -49.160156 65.8125 -56.738281 61.46875 -61.71875 C 57.132812 -66.695312 51.335938 -69.1875 44.078125 -69.1875 C 36.578125 -69.1875 30.796875 -66.753906 26.734375 -61.890625 C 22.679688 -57.035156 20.65625 -49.398438 20.65625 -38.984375 C 20.65625 -18.890625 28.460938 -8.84375 44.078125 -8.84375 Z M 44.078125 -8.84375 "/></g></g></g><g fill="#5e17eb" fill-opacity="1"><g transform="translate(150.325016, 155.856858)"><g><path d="M 76.40625 -103.421875 L 76.40625 -93.375 L 27.796875 -93.375 L 27.796875 -55.75 L 71.515625 -55.75 L 71.515625 -45.625 L 27.796875 -45.625 L 27.796875 0 L 15.640625 0 L 15.640625 -103.421875 Z M 76.40625 -103.421875 "/></g></g></g><g fill="#000000" fill-opacity="1"><g transform="translate(232.324578, 155.856858)"><g><path d="M 5.09375 14.78125 L 5.09375 5.59375 L 10.828125 5.59375 C 14.691406 5.59375 17.554688 4.707031 19.421875 2.9375 C 21.285156 1.164062 22.21875 -1.582031 22.21875 -5.3125 L 22.21875 -29.5625 C 22.21875 -34.332031 23.125 -38.023438 24.9375 -40.640625 C 26.75 -43.253906 29.445312 -45.222656 33.03125 -46.546875 L 33.03125 -48.03125 C 29.445312 -49.351562 26.75 -51.320312 24.9375 -53.9375 C 23.125 -56.550781 22.21875 -60.242188 22.21875 -65.015625 L 22.21875 -89.28125 C 22.21875 -93 21.285156 -95.742188 19.421875 -97.515625 C 17.554688 -99.285156 14.691406 -100.171875 10.828125 -100.171875 L 5.09375 -100.171875 L 5.09375 -109.359375 L 12.3125 -109.359375 C 18.957031 -109.359375 24.09375 -107.679688 27.71875 -104.328125 C 31.351562 -100.984375 33.171875 -95.96875 33.171875 -89.28125 L 33.171875 -64.15625 C 33.171875 -59.820312 34.078125 -56.757812 35.890625 -54.96875 C 37.710938 -53.175781 40.742188 -52.28125 44.984375 -52.28125 L 50.578125 -52.28125 L 50.578125 -42.234375 L 44.984375 -42.234375 C 40.742188 -42.234375 37.710938 -41.347656 35.890625 -39.578125 C 34.078125 -37.804688 33.171875 -34.753906 33.171875 -30.421875 L 33.171875 -5.3125 C 33.171875 1.382812 31.351562 6.40625 27.71875 9.75 C 24.09375 13.101562 18.957031 14.78125 12.3125 14.78125 Z M 5.09375 14.78125 "/></g></g></g></g></g></svg>